<svg width="319" height="36" viewBox="0 0 319 36" fill="none" xmlns="http://www.w3.org/2000/svg">
<path d="M249.252 16.7601V11.5945H255.581V9.29297H240.461V11.5945H246.548V15.6094C246.548 16.977 245.801 18.497 243.56 19.4523C241.319 20.4077 240 20.8414 240 20.8414L241.165 22.8811C241.165 22.8811 244.834 22.1661 248.02 18.9307L254.394 22.9261L255.931 21.0368L249.252 16.7601Z" fill="black"/>
<path d="M259.155 9.03125V14.023L254.262 15.3418V17.5417L259.155 16.2444V22.723H261.997V9.03125H259.155Z" fill="black"/>
<path d="M284.25 9.03125V13.2728L278.61 14.6033V16.8032L284.25 15.4961V22.723H287.093V9.03125H284.25Z" fill="black"/>
<path d="M271.782 9.09767V13.1458C271.782 13.3846 271.763 13.623 271.725 13.8589C271.644 14.363 271.488 15.2265 271.314 15.5157C270.493 16.9048 269.439 18.5263 265.337 19.8568L266.391 21.8829C266.391 21.8829 270.728 20.6676 272.955 17.7155L279.577 21.709L281.042 19.9721L273.974 15.6094C274.307 13.4527 274.439 11.2704 274.369 9.08984L271.782 9.09767Z" fill="black"/>
<path d="M300.805 9.76172V13.1124C300.805 14.1557 300.085 15.0231 299.42 15.8476C298.289 17.2523 296.79 18.8583 291.037 20.1888L292.516 22.2148C292.516 22.2148 298.297 20.8706 301.723 17.2523L311.453 22.0565L312.772 20.1751L303.309 15.4002C303.309 15.4002 303.858 13.4015 303.694 9.75391L300.805 9.76172Z" fill="black"/>
<path d="M313.037 25.2422H290.769V27.4401H300.707V32.4768H303.096V27.4401H313.037V25.2422Z" fill="black"/>
<path d="M319 4.61861L318.353 2.60432L314.825 3.71013V0H312.687V3.70231L309.18 2.60432L308.534 4.61861L312.08 5.72832L309.944 8.73316L311.694 9.94837L313.779 7.01583L315.863 9.94837L317.614 8.73316L315.474 5.72442L319 4.61861Z" fill="#EC6366"/>
<path d="M277.125 22.9922C269.732 22.9922 266.49 25.3113 266.49 28.1735C266.49 31.0357 269.498 33.3547 277.125 33.3547C285.145 33.3547 287.761 31.0337 287.761 28.1735C287.761 25.3132 284.852 22.9922 277.125 22.9922ZM277.125 30.895C271.314 30.895 269.402 29.6759 269.402 28.1735C269.402 26.671 271.431 25.4519 277.125 25.4519C283.094 25.4519 284.85 26.671 284.85 28.1735C284.85 29.6759 283.21 30.895 277.125 30.895Z" fill="black"/>
<path d="M262.363 26.0511C261.99 25.5941 261.509 25.2339 260.963 25.0018C260.416 24.7696 259.821 24.6724 259.228 24.7187C259.228 24.7187 259.662 26.5943 258.006 28.4308C257.296 29.222 255.075 30.4939 251.954 30.4939C248.885 30.4939 246.614 29.222 245.9 28.4308C244.245 26.5865 244.678 24.7187 244.678 24.7187C244.084 24.6715 243.488 24.7682 242.94 25.0004C242.393 25.2326 241.911 25.5933 241.537 26.0511C240.596 27.2038 240.892 28.1338 240.892 28.1338H242.33C242.33 28.1338 243.653 30.9999 247.884 32.1722C249.211 32.5194 250.581 32.685 251.954 32.6645C253.327 32.6842 254.695 32.5186 256.022 32.1722C260.253 30.9999 261.576 28.1338 261.576 28.1338H263.014C263.014 28.1338 263.305 27.2038 262.363 26.0511Z" fill="#EC6366"/>
<path d="M72.492 14.004H70.638V24.282H71.718C73.41 24.282 75.282 24.192 77.46 23.796L77.262 22.212C75.498 22.536 73.932 22.662 72.492 22.698V14.004ZM81.978 12.132V18.594H80.052V12.456H78.306V27.576H80.052V20.124H81.978V28.386H83.742V12.132H81.978ZM95.1886 18.594H92.7946C93.2626 17.208 93.4786 15.714 93.4786 14.13H87.1606V15.624H91.6426C91.3726 18.954 89.7706 21.618 86.3866 23.634L87.4486 24.948C89.6986 23.598 91.2466 21.96 92.2006 20.088H95.1886V27.612H96.9346V12.528H95.1886V18.594ZM98.5906 12.132V28.386H100.373V12.132H98.5906ZM117.122 13.734H113.144V11.988H111.29V13.734H107.294V15.21H117.122V13.734ZM109.958 18.792C109.958 17.838 110.84 17.262 112.208 17.262C113.576 17.262 114.458 17.838 114.458 18.792C114.458 19.746 113.576 20.322 112.208 20.322C110.84 20.322 109.958 19.746 109.958 18.792ZM116.222 18.792C116.222 17.028 114.62 15.876 112.208 15.876C109.796 15.876 108.194 17.028 108.194 18.792C108.194 20.556 109.796 21.708 112.208 21.708C114.62 21.708 116.222 20.556 116.222 18.792ZM111.65 24.21H118.652V26.712H111.65V24.21ZM109.832 28.188H120.47V22.752H109.832V28.188ZM118.616 12.114V21.96H120.47V12.114H118.616ZM135.139 12.114V28.422H137.011V12.114H135.139ZM128.353 13.32C125.941 13.32 124.177 15.552 124.177 19.044C124.177 22.572 125.941 24.786 128.353 24.786C130.783 24.786 132.547 22.572 132.547 19.044C132.547 15.552 130.783 13.32 128.353 13.32ZM128.353 14.994C129.775 14.994 130.765 16.524 130.765 19.044C130.765 21.6 129.775 23.13 128.353 23.13C126.949 23.13 125.959 21.6 125.959 19.044C125.959 16.524 126.949 14.994 128.353 14.994ZM150.52 20.448H153.832V18.954H147.298V15.12H153.76V13.608H145.444V20.448H148.666V23.454C147.136 23.49 145.66 23.508 144.31 23.508L144.544 25.038C147.604 25.056 151.384 25.002 154.894 24.444L154.75 23.076C153.4 23.238 151.96 23.328 150.52 23.382V20.448ZM155.74 12.096V28.422H157.612V12.096H155.74ZM173.847 16.794H164.541V12.708H162.687V18.306H173.847V16.794ZM164.433 23.238H162.579V28.026H173.937V26.532H164.433V23.238ZM160.779 20.25V21.744H175.539V20.25H160.779ZM196.104 20.07H193.836C194.25 17.766 194.25 16.074 194.25 14.544V13.122H183.162V14.616H192.432C192.432 16.11 192.432 17.802 191.964 20.07H181.398V21.6H187.752V28.386H189.624V21.6H196.104V20.07ZM206.633 16.614V18.144H209.567V21.96H211.421V12.114H209.567V16.614H206.633ZM207.641 19.926C205.157 19.206 203.681 17.442 203.681 15.588V15.444H207.101V13.968H203.699V12.042H201.827V13.968H198.407V15.444H201.827V15.588C201.827 17.622 200.423 19.548 197.921 20.322L198.821 21.762C200.729 21.168 202.097 19.89 202.817 18.27C203.555 19.692 204.923 20.826 206.777 21.348L207.641 19.926ZM206.003 26.946C203.699 26.946 202.385 26.37 202.385 25.344C202.385 24.318 203.699 23.76 206.003 23.76C208.325 23.76 209.639 24.318 209.639 25.344C209.639 26.37 208.325 26.946 206.003 26.946ZM206.003 22.32C202.601 22.32 200.531 23.436 200.531 25.344C200.531 27.252 202.601 28.386 206.003 28.386C209.405 28.386 211.493 27.252 211.493 25.344C211.493 23.436 209.405 22.32 206.003 22.32ZM224.056 19.782C221.572 18.99 220.222 17.1 220.222 15.084V14.778H223.624V13.284H214.894V14.778H218.35V15.102C218.35 17.316 216.928 19.404 214.372 20.286L215.308 21.744C217.252 21.078 218.62 19.692 219.34 17.964C220.042 19.476 221.338 20.646 223.156 21.222L224.056 19.782ZM221.968 26.928C219.7 26.928 218.386 26.352 218.386 25.308C218.386 24.246 219.7 23.688 221.968 23.688C224.236 23.688 225.55 24.246 225.55 25.308C225.55 26.352 224.236 26.928 221.968 26.928ZM221.968 22.23C218.62 22.23 216.55 23.364 216.55 25.308C216.55 27.234 218.62 28.386 221.968 28.386C225.316 28.386 227.386 27.234 227.386 25.308C227.386 23.364 225.316 22.23 221.968 22.23ZM227.206 16.092V12.132H225.352V21.852H227.206V17.622H229.51V16.092H227.206Z" fill="#1D1D1B"/>
<path d="M55.1966 10.5637C55.1519 10.2621 54.9941 9.99629 54.7381 9.80815L51.088 7.49669L53.8003 5.71084C54.3124 5.35247 54.4344 4.6447 54.0801 4.13105C53.7437 3.64725 52.9875 3.51287 52.5082 3.85033L49.7423 5.675L48.8105 2.7812C48.6229 2.19886 47.9709 1.86438 47.3874 2.05253C47.1016 2.1451 46.8664 2.34519 46.7294 2.61397C46.5925 2.88274 46.5686 3.19034 46.6609 3.48001L47.5839 6.34096H44.2554C44.1363 6.34096 44.0172 6.35888 43.904 6.39771C43.4396 6.55001 43.127 6.98005 43.124 7.46981C43.124 7.77144 43.2372 8.05813 43.4485 8.27315C43.6599 8.48817 43.9428 8.60762 44.2464 8.61061H47.5571L46.0208 12.6512C45.8243 13.2425 46.1429 13.8875 46.7324 14.0846C46.8426 14.1205 46.9557 14.1414 47.0718 14.1414C47.5601 14.1414 48.0096 13.8248 48.1585 13.3799L49.7066 9.30046L53.4013 11.6358C53.6901 11.8508 54.0831 11.9165 54.4255 11.806C54.6488 11.7314 54.8393 11.594 54.9822 11.4059C55.1638 11.164 55.2383 10.8653 55.1966 10.5637V10.5637Z" fill="#EF5896"/>
<path d="M53.4698 18.9485L50.7546 18.8679L51.487 16.4818C51.6359 16.001 51.353 15.4694 50.8737 15.3201C50.6385 15.2454 50.3855 15.2693 50.1651 15.3858C49.9478 15.5023 49.7841 15.6964 49.7126 15.9353L48.9891 18.2945L46.7533 16.7207C46.6729 16.664 46.5836 16.6192 46.4913 16.5893C46.1072 16.4728 45.6934 16.6132 45.4641 16.9417C45.3212 17.1448 45.2647 17.3897 45.3063 17.6345C45.348 17.8794 45.482 18.0944 45.6844 18.2378L47.9114 19.8026L44.9818 21.7916C44.571 22.0962 44.4817 22.6815 44.7853 23.0936C44.8419 23.1713 44.9104 23.237 44.9878 23.2937C45.3153 23.5267 45.7648 23.5267 46.0774 23.2937L49.0338 21.2839L50.4212 24.5988C50.5135 24.8795 50.7487 25.1094 51.0315 25.196C51.2161 25.2528 51.4096 25.2498 51.5912 25.1901C51.8264 25.1154 52.017 24.9482 52.1301 24.7272C52.2403 24.5032 52.2611 24.2523 52.1777 24.0015L50.8082 20.7225L53.4698 20.8061C53.9819 20.8061 54.3987 20.388 54.3987 19.8743C54.3987 19.3905 53.9551 18.9426 53.4728 18.9426L53.4698 18.9485Z" fill="#4F87C6"/>
<path d="M62.4969 16.0128C62.613 15.8277 62.6517 15.6097 62.6041 15.3916C62.5535 15.1707 62.4254 14.9915 62.223 14.866L59.996 13.6954L61.4549 12.5576C61.6246 12.4202 61.7288 12.2231 61.7496 12.0021C61.7704 11.7811 61.7049 11.5691 61.565 11.3989C61.4162 11.2197 61.175 11.1092 60.9219 11.1092C60.7284 11.1092 60.5468 11.1719 60.4128 11.2854L58.9004 12.465L58.2335 10.8524C58.1085 10.5507 57.7989 10.3477 57.4684 10.3477C57.3612 10.3477 57.26 10.3686 57.1617 10.4074C56.9593 10.491 56.8015 10.6493 56.7181 10.8524C56.6318 11.0554 56.6318 11.2794 56.7181 11.4825L57.3731 13.0682L55.4588 13.2206C55.3695 13.2295 55.2831 13.2474 55.2057 13.2803C54.8782 13.4177 54.6758 13.7462 54.7026 14.1015C54.7175 14.3225 54.8187 14.5226 54.9854 14.666C55.1521 14.8093 55.3635 14.881 55.5808 14.8631L57.4743 14.7108L56.7658 17.1447C56.6586 17.5836 56.9265 18.0316 57.3642 18.1421C57.4267 18.157 57.4892 18.166 57.5517 18.166C57.5726 18.166 57.5964 18.166 57.6172 18.166C57.9715 18.1391 58.2752 17.8853 58.3586 17.5568L59.0791 15.0751L61.3626 16.2726C61.4936 16.3533 61.6454 16.3981 61.8002 16.3981C61.9104 16.3981 62.0146 16.3772 62.1128 16.3353C62.2706 16.2696 62.4016 16.1562 62.4909 16.0128H62.4969Z" fill="#80C341"/>
<path d="M19.6248 9.87109C18.8329 9.87109 18.1928 10.5162 18.1928 11.3075V16.5158H14.37C13.5811 16.5158 12.938 17.1608 12.938 17.9522C12.938 18.7436 13.5811 19.3887 14.37 19.3887H18.1928V28.5598C18.1928 29.3512 18.8358 29.9963 19.6248 29.9963C20.4138 29.9963 21.0568 29.3512 21.0568 28.5598V11.3075C21.0568 10.5132 20.4138 9.87109 19.6248 9.87109Z" fill="#404040"/>
<path d="M8.20138 12.0255C7.96916 11.5238 7.46303 11.2013 6.90332 11.1953C6.35849 11.1953 5.85236 11.5149 5.61419 12.0076L0.142084 23.3588C-0.200295 24.0726 0.0974257 24.9326 0.806001 25.2761C1.49671 25.6135 2.3869 25.297 2.72034 24.6101L6.88248 15.9795L11.1816 25.1984C11.4138 25.7031 11.9259 26.0286 12.4796 26.0286C12.688 26.0286 12.8964 25.9809 13.084 25.8943C13.7985 25.5598 14.1082 24.6997 13.7747 23.983L8.20138 12.0255Z" fill="#404040"/>
<path d="M24.5673 14.2619L30.1763 16.1553L24.6566 21.7756C24.1951 22.4028 24.3261 23.2897 24.9514 23.7526C25.5527 24.2006 26.2822 24.0602 26.9223 23.457L32.439 17.8366L37.8486 23.4181C38.2714 23.8064 38.5453 24.0154 39.0008 24.0154C39.2926 24.0154 39.5724 23.9258 39.8106 23.7556C40.1172 23.5376 40.3227 23.2151 40.3882 22.8418C40.4537 22.4715 40.3673 22.0952 40.15 21.7846L34.7404 16.2031L40.3882 14.2649C41.1325 14.0379 41.5493 13.2465 41.323 12.5C41.1027 11.7773 40.284 11.3383 39.5635 11.5622L33.877 13.5123V9.18209C33.877 8.40264 33.2458 7.76953 32.4688 7.76953C31.6917 7.76953 31.0576 8.40264 31.0576 9.18209V13.4705L25.4515 11.5772C25.3086 11.5294 25.1598 11.5055 25.0079 11.5055C24.4006 11.5055 23.8617 11.8967 23.6712 12.4761C23.5521 12.8344 23.5818 13.2167 23.7515 13.5541C23.9212 13.8916 24.21 14.1425 24.5673 14.2619V14.2619Z" fill="#404040"/>
<path d="M41.9718 27.3742C41.8528 27.3473 41.7307 27.3264 41.6027 27.3264H34.0138V22.9364C34.0138 22.1451 33.332 21.5 32.4954 21.5C31.6588 21.5 30.974 22.1421 30.974 22.9364V27.3264H23.5995C23.4596 27.3264 23.3256 27.3473 23.1946 27.3742C22.5486 27.4548 22.0454 28.0013 22.0454 28.6703C22.0454 29.396 22.6319 29.9813 23.3554 29.9813C23.3613 29.9813 23.3703 29.9813 23.3792 29.9813C23.4506 29.9903 23.5251 29.9992 23.5995 29.9992H41.6027C41.7247 29.9992 41.8408 29.9873 41.954 29.9694C42.1147 29.9514 42.2696 29.9067 42.4065 29.835C42.8352 29.6409 43.121 29.2765 43.121 28.7629C43.121 28.7479 43.1151 28.733 43.1151 28.7181C43.1151 28.7031 43.121 28.6882 43.121 28.6703C43.121 27.9984 42.6179 27.4518 41.9718 27.3742V27.3742Z" fill="#404040"/>
</svg>
